<?xml version="1.0" encoding="UTF-8"?><svg id="uuid-79f1a8cc-22b3-4790-9c8d-247ed550c502" xmlns="http://www.w3.org/2000/svg" viewBox="0 0 408.32 79.58">
<title>Rocket Internet 2007 logo - Brandlogos.net</title><path d="M121.03,29.37v-11.84c0-5.36-2.46-8.27-7.37-8.27h-12.51v47.81h6.48v-19.44h3.8l4.24,19.44h6.03l-4.47-19.88c2.68-.89,3.8-3.57,3.8-7.82ZM114.77,29.15c0,2.23-.89,3.57-2.9,3.57h-4.24V15.52h4.24c2.01,0,2.9,1.12,2.9,3.57v10.05Z" style="fill:red;"/><path d="M139.79,9.49h-6.03c-5.14,0-7.6,2.68-7.6,8.27v31.5c0,5.36,2.68,8.04,7.82,8.04h6.03c5.14,0,7.82-2.68,7.82-8.04v-31.5c-.45-5.58-2.9-8.27-8.04-8.27ZM141.13,48.81c0,1.79-.89,2.68-2.46,2.68h-3.35c-2.01,0-2.9-.89-2.9-2.68v-30.83c0-1.79.89-2.68,2.9-2.68h2.9c2.01,0,2.9.89,2.9,2.68v30.83Z" style="fill:red;"/><path d="M164.59,9.49h-4.02c-5.14,0-7.6,2.68-7.6,8.04v31.5c0,5.36,2.46,8.04,7.6,8.04h4.02c5.14,0,7.6-2.68,7.6-8.04v-3.13h-6.48v2.68c0,1.79-.89,2.68-2.46,2.68h-1.56c-1.79,0-2.46-.89-2.46-2.68v-30.61c0-1.79.89-2.68,2.46-2.68h1.34c2.01,0,2.9.89,2.9,2.68v4.91h6.48v-5.36c-.22-5.36-2.68-8.04-7.82-8.04Z" style="fill:red;"/><rect x="177.32" y="9.49" width="6.48" height="47.81" style="fill:red;"/><polygon points="196.53 9.49 190.73 9.49 184.02 33.39 184.02 33.84 192.07 57.3 198.32 57.3 189.83 33.17 196.53 9.49" style="fill:red;"/><polygon points="202.12 57.3 217.76 57.3 217.76 51.49 208.37 51.49 208.37 35.63 216.86 35.63 216.86 29.82 208.37 29.82 208.37 15.3 217.76 15.3 217.76 9.49 202.12 9.49 202.12 57.3" style="fill:red;"/><polygon points="220.21 9.49 220.21 15.3 226.25 15.3 226.25 57.3 232.72 57.3 232.72 15.3 238.76 15.3 238.76 9.49 220.21 9.49" style="fill:red;"/><rect x="242.33" y="9.49" width="6.48" height="47.81" style="fill:#333;"/><polygon points="268.02 32.5 261.1 9.49 254.84 9.49 254.84 57.3 261.1 57.3 261.1 26.02 268.02 47.69 268.02 57.3 274.5 57.3 274.5 9.49 268.02 9.49 268.02 32.5" style="fill:#333;"/><polygon points="278.07 15.3 284.11 15.3 284.11 57.3 290.58 57.3 290.58 15.3 296.62 15.3 296.62 9.49 278.07 9.49 278.07 15.3" style="fill:#333;"/><polygon points="300.41 57.3 316.28 57.3 316.28 51.49 306.67 51.49 306.67 35.63 315.16 35.63 315.16 29.82 306.67 29.82 306.67 15.3 316.28 15.3 316.28 9.49 300.41 9.49 300.41 57.3" style="fill:#333;"/><path d="M340.63,29.37v-11.84c0-5.36-2.46-8.27-7.37-8.27h-12.51v47.81h6.48v-19.44h3.8l4.24,19.44h6.03l-4.47-19.88c2.46-.89,3.8-3.57,3.8-7.82M334.15,29.15c0,2.23-.89,3.57-2.9,3.57h-4.24V15.52h4.24c2.01,0,2.9,1.12,2.9,3.57v10.05Z" style="fill:#333;"/><polygon points="359.17 32.5 352.47 9.49 345.99 9.49 345.99 57.3 352.47 57.3 352.47 26.02 359.17 47.69 359.17 57.3 365.65 57.3 365.65 9.49 359.17 9.49 359.17 32.5" style="fill:#333;"/><polygon points="371.68 57.3 387.54 57.3 387.54 51.49 377.93 51.49 377.93 35.63 386.42 35.63 386.42 29.82 377.93 29.82 377.93 15.3 387.54 15.3 387.54 9.49 371.68 9.49 371.68 57.3" style="fill:#333;"/><polygon points="389.77 9.49 389.77 15.3 395.81 15.3 395.81 57.3 402.28 57.3 402.28 15.3 408.32 15.3 408.32 9.49 389.77 9.49" style="fill:#333;"/><path d="M74.56,22c4.24,11.62,1.79,25.24-7.6,34.63-5.36,5.36-12.06,8.49-18.99,9.38-1.79,2.46-3.35,4.69-4.91,6.48,9.38-.22,18.54-3.8,25.69-10.95,11.62-11.62,14.07-28.82,7.37-42.67-.45.89-.89,2.01-1.56,3.13Z" style="fill:#333;"/><path d="M13.79,31.38c.89-6.93,4.02-13.4,9.38-18.54C32.34,3.46,45.96,1,57.58,5.02c1.12-.45,2.01-1.12,3.13-1.56C46.86-3.02,29.88-.34,18.26,11.05c-6.93,6.93-10.72,16.08-10.95,25.24,1.79-1.56,4.02-3.13,6.48-4.91Z" style="fill:#333;"/><ellipse cx="74.79" cy="4.73" rx="4.91" ry=".45" transform="translate(18.55 54.26) rotate(-44.98)" style="fill:red;"/><path d="M78.36,1.22c-.45-.22-23.46,10.5-43.34,23.23C10.67,40.09.39,50.37.39,50.37c-.67.67-.45,1.34.45,1.34,0,0,19.21.67,22.79,4.24,3.57,3.57,4.24,22.79,4.24,22.79,0,.89.67,1.12,1.34.45,0,0,10.28-10.28,25.69-34.63C67.86,24.68,78.8,1.67,78.36,1.22Z" style="fill:red;"/></svg>