<?xml version="1.0" encoding="UTF-8"?><svg id="uuid-867b6e35-5fed-499e-9912-439c87d88ef2" xmlns="http://www.w3.org/2000/svg" viewBox="0 0 176.97 42.55">
<title>Evernote 2025 logo - Brandlogos.net</title><path d="M89.25,11.16c1.52,0,2.91.4,4.18,1.21,1.29.78,2.31,1.95,3.07,3.49.78,1.52,1.17,3.37,1.17,5.56h-12.66c.06.68.26,1.29.6,1.83.44.62.99,1.1,1.66,1.45.69.32,1.43.48,2.21.48.94,0,1.72-.2,2.31-.59.6-.41,1.06-.94,1.38-1.59l4.08,1.59c-.48.97-1.12,1.81-1.9,2.52-.76.69-1.67,1.22-2.73,1.59-1.06.37-2.27.55-3.63.55-1.7,0-3.21-.38-4.52-1.14-1.31-.78-2.35-1.85-3.11-3.21-.74-1.36-1.11-2.92-1.11-4.7s.38-3.34,1.14-4.7c.78-1.36,1.84-2.42,3.18-3.18,1.36-.78,2.91-1.17,4.66-1.17ZM89.11,15.03c-.53,0-1.09.12-1.69.35-.6.23-1.12.6-1.55,1.11-.34.4-.54.92-.6,1.55h7.49c-.06-.64-.24-1.15-.57-1.55-.39-.51-.88-.88-1.45-1.11-.55-.23-1.09-.35-1.62-.35Z" style="fill:#141414;"/><path d="M54.98,11.16c1.52,0,2.91.4,4.18,1.21,1.29.78,2.31,1.95,3.07,3.49.78,1.52,1.17,3.37,1.17,5.56h-12.66c.06.68.26,1.29.6,1.83.44.62.99,1.1,1.66,1.45.69.32,1.43.48,2.21.48.94,0,1.71-.2,2.31-.59.6-.41,1.06-.94,1.38-1.59l4.08,1.59c-.48.97-1.12,1.81-1.9,2.52-.76.69-1.67,1.22-2.73,1.59-1.06.37-2.27.55-3.63.55-1.7,0-3.21-.38-4.52-1.14-1.31-.78-2.35-1.85-3.11-3.21-.74-1.36-1.11-2.92-1.11-4.7s.38-3.34,1.14-4.7c.78-1.36,1.84-2.42,3.18-3.18,1.36-.78,2.91-1.17,4.66-1.17ZM54.84,15.03c-.53,0-1.09.12-1.69.35-.6.23-1.12.6-1.55,1.11-.34.4-.54.92-.6,1.55h7.49c-.06-.64-.24-1.15-.57-1.55-.39-.51-.87-.88-1.45-1.11-.55-.23-1.09-.35-1.62-.35Z" style="fill:#141414;"/><path d="M110.03,15.93c-1.06,0-2.06.13-3,.38-.92.25-1.67.67-2.25,1.24-.57.58-.86,1.31-.86,2.21v9.08h-4.56V11.58h4.56v3.13c.69-1.01,1.53-1.77,2.52-2.3,1.15-.6,2.35-.9,3.59-.9v4.42Z" style="fill:#141414;"/><path d="M127.66,28.85h-4.56v-8.84c0-1.17-.14-2.08-.41-2.73-.25-.64-.62-1.1-1.11-1.38-.48-.3-1.05-.45-1.69-.45-1.17-.02-2.08.33-2.73,1.07-.62.74-.93,1.83-.93,3.28v9.05h-4.56V11.58h4.28l.2,2.33c.45-.7,1-1.27,1.63-1.71.99-.69,2.14-1.04,3.45-1.04,1.36,0,2.52.28,3.49.83.97.55,1.7,1.42,2.21,2.59.51,1.15.75,2.65.73,4.49v9.77Z" style="fill:#141414;"/><path d="M138.02,29.26c-1.75,0-3.31-.38-4.7-1.14-1.36-.78-2.43-1.85-3.21-3.21-.76-1.36-1.14-2.92-1.14-4.7s.38-3.34,1.14-4.7c.76-1.36,1.82-2.42,3.18-3.18,1.36-.78,2.91-1.17,4.66-1.17s3.34.39,4.7,1.17c1.36.76,2.42,1.82,3.18,3.18.76,1.36,1.14,2.92,1.14,4.7s-.38,3.34-1.14,4.7c-.76,1.36-1.82,2.43-3.18,3.21-1.34.76-2.88,1.14-4.63,1.14ZM138.02,25.05c.85,0,1.6-.21,2.25-.62.64-.41,1.14-.98,1.49-1.69.37-.74.55-1.58.55-2.52s-.18-1.77-.55-2.49c-.37-.74-.89-1.31-1.55-1.73-.65-.41-1.39-.62-2.25-.62s-1.58.21-2.24.62c-.65.41-1.15.99-1.52,1.73-.37.71-.55,1.54-.55,2.49s.18,1.78.55,2.52c.37.71.89,1.28,1.56,1.69.67.41,1.43.62,2.28.62Z" style="fill:#141414;"/><path d="M154.46,11.58h4.32v3.87h-4.32v7.36c0,.74.16,1.3.48,1.69.32.37.79.55,1.42.55.23,0,.48-.05.76-.14.28-.11.56-.28.86-.48l1.59,3.42c-.55.41-1.17.75-1.86,1-.67.28-1.34.41-2,.41-1.91,0-3.36-.47-4.35-1.42-.97-.94-1.45-2.29-1.45-4.04v-8.36h-2.8v-3.87h2.8v-3.29l4.56-1.76v5.05Z" style="fill:#141414;"/><path d="M168.55,11.16c1.52,0,2.91.4,4.18,1.21,1.29.78,2.31,1.95,3.07,3.49.78,1.52,1.18,3.37,1.18,5.56h-12.66c.06.68.26,1.29.6,1.83.44.62.99,1.1,1.66,1.45.69.32,1.43.48,2.21.48.95,0,1.72-.2,2.32-.59.6-.41,1.06-.94,1.38-1.59l4.08,1.59c-.48.97-1.12,1.81-1.9,2.52-.76.69-1.67,1.22-2.73,1.59-1.06.37-2.27.55-3.63.55-1.7,0-3.21-.38-4.52-1.14-1.31-.78-2.35-1.85-3.11-3.21-.74-1.36-1.1-2.92-1.1-4.7s.38-3.34,1.14-4.7c.78-1.36,1.84-2.42,3.18-3.18,1.36-.78,2.91-1.17,4.66-1.17ZM168.41,15.03c-.53,0-1.09.11-1.69.34-.6.23-1.12.6-1.55,1.11-.34.4-.54.92-.6,1.55h7.49c-.06-.64-.24-1.15-.57-1.55-.39-.51-.88-.88-1.45-1.11-.55-.23-1.09-.34-1.62-.34Z" style="fill:#141414;"/><path d="M71.57,23.85l4.66-12.27h4.7l-7.08,17.27h-4.56l-7.08-17.27h4.7l4.66,12.27Z" style="fill:#141414;"/><path d="M11.99,1.84C13.31.46,15.2-.2,17.09.05c1.28.17,2.46.76,3.38,1.66l.94.93h1.25c6.98,0,12.64,5.66,12.64,12.64v13.61h0c0,5.29-1.29,8.76-4.03,11.01-3.52,3.3-10.34,3.61-14.3.44-1.56-1.25-2.59-2.64-3.69-5.06l6.24-2.38c.21.47.62,1.24,1.27,1.94,1.33,1.43,4.12,1.44,5.21.44,2.64-2.41.38-6.39-4.27-6.39h-9.43c-6.12,0-11.2-4.47-12.16-10.32,0,0,0,0,0,0-.53-3.52.55-4.63,2.66-4.63h5.71c4.68,0,5.95-1.96,5.95-5.49v-1.81h-.85s-.11.93-.46,1.81c-.73,1.86-1.43,3.21-4.16,3.21-1.23,0-2.45,0-3.68,0-.91,0-1.82,0-2.73,0l1.79-1.87L11.99,1.84ZM26.1,18.11c-1.66,0-3.01,1.1-3.01,2.45h6.02c0-1.36-1.35-2.45-3.01-2.45Z" style="fill:#00a82d; fill-rule:evenodd;"/></svg>