<svg xmlns="http://www.w3.org/2000/svg" viewBox="0 0 284.45 46.05"><title>Skyscanner logo - Brandlogos.net</title><path d="M273,400.43a3.67,3.67,0,0,0,1.88-.5l6.85-3.94a7.47,7.47,0,0,1,4.56-.94,101.24,101.24,0,0,1,15.85,3,1,1,0,0,0,1-.31,5.65,5.65,0,0,0,.91-1.72,5.13,5.13,0,0,0,.25-1.91.9.9,0,0,0-.66-.81,119.05,119.05,0,0,0-61.21,0,.9.9,0,0,0-.66.81,5.27,5.27,0,0,0,.25,1.91,5,5,0,0,0,.91,1.72,1,1,0,0,0,1,.31,102.1,102.1,0,0,1,15.85-3,7.47,7.47,0,0,1,4.56.94l6.85,3.94A3.75,3.75,0,0,0,273,400.43Zm-11.41-22.17a2.71,2.71,0,0,0,1.66,1.28,2.68,2.68,0,0,0,2.06-.28,2.71,2.71,0,0,0,1.28-1.66,2.68,2.68,0,0,0-.28-2.06l-6.16-10.66a1,1,0,0,0-1-.44,5,5,0,0,0-2,.75,5.22,5.22,0,0,0-1.66,1.34,1,1,0,0,0-.09,1.06ZM256,385.89a2.84,2.84,0,0,0,2.06.28,2.71,2.71,0,0,0,1.66-1.28,2.84,2.84,0,0,0,.28-2.06,2.68,2.68,0,0,0-1.28-1.66L248.07,375a1,1,0,0,0-1.06.09,5.22,5.22,0,0,0-1.34,1.66,5,5,0,0,0-.75,2,1,1,0,0,0,.44,1Zm19.76-11.41a2.85,2.85,0,0,1-.78,1.94,2.66,2.66,0,0,1-1.94.78,2.85,2.85,0,0,1-1.94-.78,2.66,2.66,0,0,1-.78-1.94V362.19a.94.94,0,0,1,.63-.88,6.55,6.55,0,0,1,4.19,0,1,1,0,0,1,.63.88Zm8.69,3.78a2.71,2.71,0,0,1-1.66,1.28,2.68,2.68,0,0,1-2.06-.28,2.71,2.71,0,0,1-1.28-1.66,2.68,2.68,0,0,1,.28-2.06l6.16-10.66a1,1,0,0,1,1-.44,5,5,0,0,1,2,.75,5.22,5.22,0,0,1,1.66,1.34,1,1,0,0,1,.09,1.06l-6.16,10.66Zm5.63,7.63a2.84,2.84,0,0,1-2.06.28,2.71,2.71,0,0,1-1.66-1.28,2.84,2.84,0,0,1-.28-2.06,2.71,2.71,0,0,1,1.28-1.66L298,375a1,1,0,0,1,1.06.09,5.22,5.22,0,0,1,1.34,1.66,5,5,0,0,1,.75,2,1,1,0,0,1-.44,1Zm68-8.47h5.13a.53.53,0,0,1,.44.28l5.1,13.07,4.94-13.07a.44.44,0,0,1,.44-.28h5a.43.43,0,0,1,.41.63l-12.51,28.7a.48.48,0,0,1-.41.28h-4.44a.44.44,0,0,1-.41-.63l4.28-10L357.71,378a.41.41,0,0,1,.38-.63Zm75.69,2.91v-2.44a.48.48,0,0,1,.47-.47h4.53a.48.48,0,0,1,.47.47v19.48a.48.48,0,0,1-.47.47h-4.53a.48.48,0,0,1-.47-.47V394.8a7.68,7.68,0,0,1-6.57,3.47c-6.63,0-10.07-5.06-10.07-10.72,0-7.38,5.13-10.54,9.91-10.54A8,8,0,0,1,433.78,380.33Zm-11.16,7.25c0,3.5,2.16,6.19,5.63,6.19s5.69-2.34,5.69-5.94-2.16-6.35-5.85-6.35C424.62,381.48,422.62,384.17,422.62,387.58Zm20.73,9.79V377.89a.48.48,0,0,1,.47-.47h4.53a.48.48,0,0,1,.47.47v2.66a7,7,0,0,1,6.47-3.53c3.5,0,7.41,1.72,7.41,9.63v10.72a.48.48,0,0,1-.47.47h-4.53a.48.48,0,0,1-.47-.47V386.74c0-1.91-.47-5.19-3.85-5.19s-4.56,3-4.56,5.72v10.1a.48.48,0,0,1-.47.47h-4.53a.48.48,0,0,1-.47-.47Zm23.23,0V377.89a.48.48,0,0,1,.47-.47h4.53a.48.48,0,0,1,.47.47v2.66a7,7,0,0,1,6.47-3.53c3.5,0,7.41,1.72,7.41,9.63v10.72a.48.48,0,0,1-.47.47h-4.53a.48.48,0,0,1-.47-.47V386.74c0-1.91-.47-5.19-3.85-5.19s-4.56,3-4.56,5.72v10.1a.48.48,0,0,1-.47.47H467a.5.5,0,0,1-.47-.47Zm47.62-19.95h4.41a.48.48,0,0,1,.47.47v4a5.75,5.75,0,0,1,6.82-4.78.41.41,0,0,1,.34.44V382a.45.45,0,0,1-.56.44c-4.63-.91-6.5,1.59-6.5,5.1v9.82a.48.48,0,0,1-.47.47h-4.53a.48.48,0,0,1-.47-.47V377.89a.53.53,0,0,1,.5-.47ZM328,381.86c-1.41-.47-2.16-.75-3.28-1.13s-3.13-1.53-3.13-3.35,1.25-3,3.78-3a4.5,4.5,0,0,1,4.44,2.94.48.48,0,0,0,.66.22l3.72-2.16a.49.49,0,0,0,.19-.59,9.26,9.26,0,0,0-8.94-5.44c-5.78,0-9.41,3.44-9.41,8s3,6.85,7,8.22c1.47.5,2.06.72,3.31,1.13,2.38.81,3.47,1.88,3.47,3.35s-.94,3.22-4.63,3.22c-3.38,0-4.56-1.78-5.25-3.47a.45.45,0,0,0-.66-.22l-3.91,2.25a.45.45,0,0,0-.19.56c1.5,3.69,5.6,5.88,10.19,5.88,5.41,0,10-2.75,10-8.32S329.45,382.33,328,381.86Zm29.86,10.63a.47.47,0,0,0-.66-.16c-1.75,1.28-3.81,1.31-5.38-1.09-1.31-2-2.91-4.53-2.91-4.53l6.88-8.54a.46.46,0,0,0-.34-.75h-5.38a.45.45,0,0,0-.38.19l-5.94,8.16V369.35a.48.48,0,0,0-.47-.47H338.8a.48.48,0,0,0-.47.47v28a.48.48,0,0,0,.47.47h4.56a.48.48,0,0,0,.47-.47v-9.1s3,4.78,4.19,6.57a7,7,0,0,0,6.13,3.44,6.85,6.85,0,0,0,5.41-2.28.48.48,0,0,0,.09-.56l-1.75-2.94ZM390.45,386l-3-1.13c-1.09-.41-2.06-1-2.06-1.88s.81-1.84,2.47-1.84a2.83,2.83,0,0,1,2.81,1.56.44.44,0,0,0,.63.19l3.19-1.84a.46.46,0,0,0,.16-.63C393.73,379,392,377,387.85,377c-5.1,0-7.72,2.94-7.72,6.19s2.66,4.78,5.1,5.75c2.75,1.13,2.94,1.19,3.28,1.31.84.34,1.88.88,1.88,1.84s-1.13,1.84-2.85,1.84a4.27,4.27,0,0,1-4.16-2.5.45.45,0,0,0-.66-.22l-3.22,1.84a.45.45,0,0,0-.19.56c.94,2.44,3.72,4.6,8.22,4.6,4.88,0,8.13-2.59,8.13-6.25s-2.5-4.94-5.22-5.94Zm18.32-4.19a8.07,8.07,0,0,1,4.94,1.63.46.46,0,0,0,.66-.13l1.88-3.25a.42.42,0,0,0-.16-.59,13.11,13.11,0,0,0-7.6-2.53,11.32,11.32,0,0,0-8.32,3,10.33,10.33,0,0,0-3.1,7.66,10.17,10.17,0,0,0,3.13,7.57,11.84,11.84,0,0,0,8.32,3,13.56,13.56,0,0,0,7.6-2.53.45.45,0,0,0,.13-.59l-1.84-3.22a.47.47,0,0,0-.66-.16,8.62,8.62,0,0,1-4.94,1.63c-2.22,0-6.25-1.25-6.25-5.75s4-5.75,6.22-5.75Zm92,11.88A7.62,7.62,0,0,1,496,392.3a4.09,4.09,0,0,1-1.84-3.25h16.19a.48.48,0,0,0,.47-.47c-.09-4.81-1.66-7.07-3.16-8.6a10.88,10.88,0,0,0-7.72-3,11.17,11.17,0,0,0-8,3.1,10.68,10.68,0,0,0-.06,15.16c1.72,1.72,4.53,3,8.57,3a11.92,11.92,0,0,0,9.35-4,.45.45,0,0,0-.13-.69l-3.22-1.88a.43.43,0,0,0-.53.06A7.59,7.59,0,0,1,500.74,393.74Zm-.88-12.38a5.11,5.11,0,0,1,5.35,4.38H494.3a5.37,5.37,0,0,1,5.56-4.38Z" transform="translate(-241.78 -360.97)" style="fill:#0770e3"/></svg>